<svg xmlns="http://www.w3.org/2000/svg" width="32" height="32" viewBox="0 0 32 32">
  <path id="icons8-behance" d="M24,15.26a3.52,3.52,0,0,1,.615,1.356H20.678A1.361,1.361,0,0,1,20.8,16a1.683,1.683,0,0,1,.37-.615,1.227,1.227,0,0,1,.615-.49,2.287,2.287,0,0,1,.986-.25A2,2,0,0,1,24,15.26ZM12.678,14.4a1.56,1.56,0,0,0,.49-1.106,1.6,1.6,0,0,0-.12-.74c-.125-.12-.25-.37-.37-.37-.125-.12-.37-.12-.615-.245h-3.2v2.832h2.707A2,2,0,0,0,12.678,14.4Zm-.986,2.091H8.861v3.327h2.832a1.556,1.556,0,0,0,.74-.125.961.961,0,0,0,.615-.245c.12-.125.365-.245.49-.5a1.528,1.528,0,0,0,.125-.736,1.535,1.535,0,0,0-.5-1.356A2.631,2.631,0,0,0,11.692,16.49ZM32,6.029V25.971A6.038,6.038,0,0,1,25.971,32H6.029A6.038,6.038,0,0,1,0,25.971V6.029A6.039,6.039,0,0,1,6.029,0H25.971A6.038,6.038,0,0,1,32,6.029ZM20.183,11.817h4.923V10.587H20.183Zm-3.937,6.644a3.6,3.6,0,0,0-.49-1.971,3.127,3.127,0,0,0-1.6-1.106,3.341,3.341,0,0,0,1.231-.986,2.631,2.631,0,0,0,.37-1.476,5.381,5.381,0,0,0-.245-1.476,2.684,2.684,0,0,0-.74-.861,3.674,3.674,0,0,0-1.231-.5,4.2,4.2,0,0,0-1.721-.245H6.154V21.909h5.909a7.432,7.432,0,0,0,1.6-.245,4.642,4.642,0,0,0,1.351-.615A2.909,2.909,0,0,0,16,19.937,4.538,4.538,0,0,0,16.245,18.462Zm4.433-.37h6.274a10.173,10.173,0,0,0-.12-1.966,3.24,3.24,0,0,0-.74-1.6,3.885,3.885,0,0,0-1.351-1.111,5.178,5.178,0,0,0-1.971-.49,4.96,4.96,0,0,0-1.846.37,10.107,10.107,0,0,0-1.476.986,2.9,2.9,0,0,0-.861,1.476,4.864,4.864,0,0,0-.37,1.846,4.443,4.443,0,0,0,.37,1.846,4.229,4.229,0,0,0,.861,1.476,5.457,5.457,0,0,0,1.351.986,4.96,4.96,0,0,0,1.846.37,4.575,4.575,0,0,0,2.587-.74,4.323,4.323,0,0,0,1.6-2.216H24.74a1.684,1.684,0,0,1-.615.74,2.093,2.093,0,0,1-1.231.37,2.27,2.27,0,0,1-1.6-.5A3.008,3.008,0,0,1,20.678,18.091Z" fill="#428551"/>
</svg>
