<svg xmlns="http://www.w3.org/2000/svg" width="32" height="32" viewBox="0 0 32 32">
  <path id="icons8-instagram-circle" d="M18,2A16,16,0,1,0,34,18,16.018,16.018,0,0,0,18,2ZM13.9,6.923h8.2A6.983,6.983,0,0,1,29.077,13.9v8.2A6.983,6.983,0,0,1,22.1,29.077H13.9A6.983,6.983,0,0,1,6.923,22.1V13.9A6.983,6.983,0,0,1,13.9,6.923Zm0,2.462A4.519,4.519,0,0,0,9.385,13.9v8.2A4.519,4.519,0,0,0,13.9,26.615h8.2A4.519,4.519,0,0,0,26.615,22.1V13.9A4.519,4.519,0,0,0,22.1,9.385Zm9.849,2.05a.821.821,0,1,1-.822.82A.819.819,0,0,1,23.745,11.435ZM18,11.846A6.154,6.154,0,1,1,11.846,18,6.161,6.161,0,0,1,18,11.846Zm0,2.462A3.692,3.692,0,1,0,21.692,18,3.692,3.692,0,0,0,18,14.308Z" transform="translate(-2 -2)" fill="#428551"/>
</svg>
